<?xml version="1.0" encoding="UTF-8"?>
<svg xmlns="http://www.w3.org/2000/svg" xmlns:xlink="http://www.w3.org/1999/xlink" width="2448" height="2448" viewBox="0 0 2448 2448">
<path fill-rule="evenodd" fill="rgb(100%, 100%, 100%)" fill-opacity="1" d="M 2449.140625 0.929688 L 0.863281 0.929688 L 0.863281 2449.207031 L 2449.140625 2449.207031 L 2449.140625 0.929688 "/>
<path fill-rule="nonzero" fill="rgb(0%, 0%, 0%)" fill-opacity="1" d="M 215.175781 868.480469 C 244.039062 785 278.417969 742.160156 382.726562 659.679688 C 762.738281 359.191406 1379.308594 243.5 1798.328125 394.058594 C 1959.710938 452.039062 2123.359375 584.921875 2214.410156 731.910156 C 2254.519531 796.660156 2255.011719 799.019531 2252.351562 914.390625 C 2245.730469 1201.621094 2119.160156 1599.046875 1972.71875 1792.488281 C 1861.628906 1939.226562 1731.011719 2032.652344 1554.570312 2091.554688 C 1475.921875 2117.808594 1445.980469 2121.332031 1297.21875 2121.84375 C 1141.890625 2122.390625 1121.691406 2119.894531 1035.988281 2089.914062 C 820.90625 2014.652344 588.992188 1835.980469 459.875 1646.066406 C 367.160156 1509.699219 262.347656 1252.058594 216.84375 1048.679688 C 190.253906 929.851562 190.351562 940.269531 215.171875 868.480469 Z M 479.589844 1094.070312 C 482.8125 1097.289062 499.605469 1090.859375 516.90625 1079.769531 C 711.011719 955.410156 983.09375 879.640625 1282.140625 866.691406 C 1567.121094 854.351562 1769.949219 908.019531 1939.761719 1040.699219 C 1994.421875 1083.410156 1999.601562 1077.359375 2009.601562 959.078125 C 2018.429688 854.640625 2005.949219 827.890625 1905.621094 736.199219 C 1779.871094 621.269531 1623.351562 572.671875 1378.988281 572.671875 C 1218.558594 572.671875 1085.128906 593.730469 928.492188 643.800781 C 744.910156 702.46875 564.21875 804.628906 480.898438 896.851562 L 439.722656 942.429688 L 456.722656 1015.320312 C 466.074219 1055.410156 476.363281 1090.839844 479.589844 1094.070312 Z M 618.765625 1441.300781 C 641.519531 1482.695312 673.277344 1533.792969 689.339844 1554.851562 L 718.539062 1593.132812 L 782.039062 1541.410156 C 926.546875 1423.710938 1032.621094 1391.378906 1273.988281 1391.5 C 1486.699219 1391.609375 1579 1412.550781 1737.46875 1496.703125 C 1791.230469 1525.253906 1839.519531 1544.3125 1844.78125 1539.054688 C 1857.25 1526.589844 1912.550781 1385.410156 1912.550781 1366.050781 C 1912.550781 1357.851562 1881.710938 1319.621094 1844.019531 1281.101562 C 1724.210938 1158.648438 1576.820312 1106.730469 1349.070312 1106.730469 C 1179.898438 1106.730469 1031.160156 1130.53125 868.765625 1183.570312 C 719.566406 1232.308594 577.390625 1315.71875 577.390625 1354.511719 C 577.390625 1360.839844 596.007812 1399.898438 618.765625 1441.300781 Z M 1018.460938 1820.675781 C 1203.171875 1914.207031 1435.140625 1906.414062 1609.890625 1800.808594 C 1644.578125 1779.847656 1674.75 1757.070312 1676.949219 1750.195312 C 1681.828125 1734.925781 1592.839844 1686.210938 1506.199219 1656.722656 C 1455.769531 1639.558594 1408.160156 1634.988281 1279.800781 1634.988281 C 1095.578125 1634.988281 1031.230469 1650.410156 955.703125 1712.667969 L 910.988281 1749.527344 L 938.546875 1771.847656 C 953.707031 1784.117188 989.667969 1806.09375 1018.460938 1820.675781 "/>
</svg>
